<svg height="77.336" viewBox="0 0 83.633 77.336" width="83.633" xmlns="http://www.w3.org/2000/svg"><g fill="none" transform="translate(-1763.59 -1119.276)"><path d="m1820.562 1165.975 5.187.305" stroke="#bdf271" stroke-width="2.035"/><path d="m1821.172 1174.831 6.408 2.138" stroke="#bdf271" stroke-width="2.035"/><path d="m1774.18 1185.519s3.051 6.107 8.239 5.191 5.8-7.024 12.816-5.191 10.07 4.886 17.088 3.97 10.07-4.581 10.07-4.581" stroke="#bdf271" stroke-width="2.035"/><path d="m1815.272 1138.865s-2.441-12.826 6.51-17.1c8.931-4.266 13.224 2.24 13.224 2.24" stroke="#bdf271" stroke-width="2.035"/><path d="m1815.068 1140.493s-8.046-13.429-16.275-9.976a9.09 9.09 0 0 0 -5.7 8.958" stroke="#bdf271" stroke-width="2.035"/><path d="m1816.7 1142.733s-11.392-7.533-19.123.611c-5.354 5.64-1.221 12.215-1.221 12.215" stroke="#bdf271" stroke-width="2.035"/><path d="m1817.1 1140.086s7.155-18.074 22.479-10.255c7.018 3.581 6.612 8.875 6.612 8.875" stroke="#bdf271" stroke-width="2.035"/><path d="m1831.745 1195.29c-5.655-11.16-18.3-18.933-33-18.933s-27.345 7.772-33 18.933z" stroke="#01a2a6" stroke-width="2.646"/><path d="m1821.172 1183.733s1.22-36.639-6.713-46.28c11.6 9.091 14.036 52.341 14.036 52.341" stroke="#01a2a6" stroke-width="2.646"/><g stroke="#bdf271"><path d="m1820.561 1133.748 4.069 5.877" stroke-width="2.035"/><path d="m1824.223 1130.626 5.493 7.53" stroke-width="2.035"/><path d="m1829.716 1128.789 3.458 7.897" stroke-width="2.035"/><path d="m1835.412 1128.422 1.221 7.163" stroke-width="2.035"/><path d="m1841.108 1131.544-.407 4.592" stroke-width="2.035"/><path d="m1811.406 1140.697 2.441 6.108" stroke-width="2.035"/><path d="m1804.489 1140.493 4.882 6.515" stroke-width="2.035"/><path d="m1798.997 1142.936 5.493 5.904" stroke-width="2.035"/><path d="m1795.538 1149.248 4.069 1.832" stroke-width="2.035"/><path d="m1806.524 1131.943v3.665" stroke-width="2.036"/><path d="m1798.793 1130.518 2.441 5.7" stroke-width="2.035"/><path d="m1816.492 1127.871 2.645 2.85" stroke-width="2.035"/><path d="m1822.799 1121.967 1.627 5.497" stroke-width="2.035"/></g></g></svg>